HIERARCHY
ROOT Hip
{
	OFFSET 0 1.131 0.0052
	CHANNELS 6 Xposition Yposition Zposition Xrotation Yrotation Zrotation
	JOINT Abdomen
	{
		OFFSET 0 -0.047353 -0.05
		CHANNELS 3 Xrotation Zrotation Yrotation
		JOINT Chest
		{
			OFFSET 0 0.132153 0.007439
			CHANNELS 3 Xrotation Zrotation Yrotation
			JOINT Neck
			{
				OFFSET 0 0.3078 0.006161
				CHANNELS 3 Xrotation Zrotation Yrotation
				JOINT Head_comp
				{
					OFFSET 0 0.0884 0.013
					CHANNELS 3 Xrotation Yrotation Zrotation
					End Site
					{
						OFFSET -0 0.156 0.0624
					}
				}
			}
			JOINT Left_Collar
			{
				OFFSET 0.02282 0.250342 0.017193
				CHANNELS 2 Yrotation Zrotation
				JOINT Left_Shoulder
				{
					OFFSET 0.15421 0 0
					CHANNELS 3 Xrotation Yrotation Zrotation
					JOINT Left_Forearm
					{
						OFFSET 0.265212 0 0
						CHANNELS 2 Yrotation Xrotation
						JOINT Left_Hand
						{
							OFFSET 0.27571 0 0
							CHANNELS 2 Zrotation Yrotation
							JOINT L1ProxPhalanx
							{
								OFFSET 0.014142 0.001733 0.014142
								CHANNELS 3 Yrotation Zrotation Xrotation
								JOINT L1MidPhalanx
								{
									OFFSET 0.04 0 0
									CHANNELS 1 Zrotation
									JOINT L1DistPhalanx
									{
										OFFSET 0.035 0 0
										CHANNELS 1 Zrotation
										End Site
										{
											OFFSET 0.029 -0 -0
										}
									}
								}
							}
							JOINT L2ProxPhalanx
							{
								OFFSET 0.0821037 0.001578 0.0219996
								CHANNELS 2 Yrotation Zrotation
								JOINT L2MidPhalanx
								{
									OFFSET 0.04 0 0
									CHANNELS 1 Zrotation
									JOINT L2DistPhalanx
									{
										OFFSET 0.028 0 0
										CHANNELS 1 Zrotation
										End Site
										{
											OFFSET 0.02 -0 -0
										}
									}
								}
							}
							JOINT L3ProxPhalanx
							{
								OFFSET 0.083 0 0
								CHANNELS 2 Yrotation Zrotation
								JOINT L3MidPhalanx
								{
									OFFSET 0.053 0 0
									CHANNELS 1 Zrotation
									JOINT L3DistPhalanx
									{
										OFFSET 0.03 0 0
										CHANNELS 1 Zrotation
										End Site
										{
											OFFSET 0.023 -0 -0
										}
									}
								}
							}
							JOINT L4ProxPhalanx
							{
								OFFSET 0.077274 -0.000761 -0.0207055
								CHANNELS 2 Yrotation Zrotation
								JOINT L4MidPhalanx
								{
									OFFSET 0.05 0 0
									CHANNELS 1 Zrotation
									JOINT L4DistPhalanx
									{
										OFFSET 0.03 0 0
										CHANNELS 1 Zrotation
										End Site
										{
											OFFSET 0.023 -0 -0
										}
									}
								}
							}
							JOINT L5ProxPhalanx
							{
								OFFSET 0.0675499 -0.001644 -0.039
								CHANNELS 2 Yrotation Zrotation
								JOINT L5MidPhalanx
								{
									OFFSET 0.04 0 0
									CHANNELS 1 Zrotation
									JOINT L5DistPhalanx
									{
										OFFSET 0.021 0 0
										CHANNELS 1 Zrotation
										End Site
										{
											OFFSET 0.022 -0 -0
										}
									}
								}
							}
						}
					}
				}
			}
			JOINT Right_Collar
			{
				OFFSET -0.02282 0.250342 0.017193
				CHANNELS 2 Yrotation Zrotation
				JOINT Right_Shoulder
				{
					OFFSET -0.15421 0 0
					CHANNELS 3 Xrotation Yrotation Zrotation
					JOINT Right_Forearm
					{
						OFFSET -0.265212 0 0
						CHANNELS 2 Yrotation Xrotation
						JOINT Right_Hand
						{
							OFFSET -0.27571 3e-006 0
							CHANNELS 2 Zrotation Yrotation
							JOINT R1ProxPhalanx
							{
								OFFSET -0.014142 0.001733 0.014142
								CHANNELS 3 Yrotation Zrotation Xrotation
								JOINT R1MidPhalanx
								{
									OFFSET -0.04 0 0
									CHANNELS 1 Zrotation
									JOINT R1DistPhalanx
									{
										OFFSET -0.035 0 0
										CHANNELS 1 Zrotation
										End Site
										{
											OFFSET -0.029 -0 -0
										}
									}
								}
							}
							JOINT R2ProxPhalanx
							{
								OFFSET -0.0821037 0.001578 0.0219996
								CHANNELS 2 Yrotation Zrotation
								JOINT R2MidPhalanx
								{
									OFFSET -0.04 0 0
									CHANNELS 1 Zrotation
									JOINT R2DistPhalanx
									{
										OFFSET -0.028 0 0
										CHANNELS 1 Zrotation
										End Site
										{
											OFFSET -0.02 -0 -0
										}
									}
								}
							}
							JOINT R3ProxPhalanx
							{
								OFFSET -0.083 0 0
								CHANNELS 2 Yrotation Zrotation
								JOINT R3MidPhalanx
								{
									OFFSET -0.053 0 0
									CHANNELS 1 Zrotation
									JOINT R3DistPhalanx
									{
										OFFSET -0.03 0 0
										CHANNELS 1 Zrotation
										End Site
										{
											OFFSET -0.023 -0 -0
										}
									}
								}
							}
							JOINT R4ProxPhalanx
							{
								OFFSET -0.077274 -0.000761 -0.0207055
								CHANNELS 2 Yrotation Zrotation
								JOINT R4MidPhalanx
								{
									OFFSET -0.05 0 0
									CHANNELS 1 Zrotation
									JOINT R4DistPhalanx
									{
										OFFSET -0.03 0 0
										CHANNELS 1 Zrotation
										End Site
										{
											OFFSET -0.023 -0 -0
										}
									}
								}
							}
							JOINT R5ProxPhalanx
							{
								OFFSET -0.0675499 -0.001644 -0.039
								CHANNELS 2 Yrotation Zrotation
								JOINT R5MidPhalanx
								{
									OFFSET -0.04 0 0
									CHANNELS 1 Zrotation
									JOINT R5DistPhalanx
									{
										OFFSET -0.021 0 0
										CHANNELS 1 Zrotation
										End Site
										{
											OFFSET -0.022 -0 -0
										}
									}
								}
							}
						}
					}
				}
			}
		}
	}
	JOINT Left_Thigh
	{
		OFFSET 0.1118 -0.1612 -0.0442
		CHANNELS 3 Xrotation Zrotation Yrotation
		JOINT Left_Shin
		{
			OFFSET 0 -0.477856 0
			CHANNELS 1 Xrotation
			JOINT Left_Foot
			{
				OFFSET 0 -0.431952 0
				CHANNELS 2 Xrotation Zrotation
				JOINT Left_Toe
				{
					OFFSET 0 -0.0442 0.119
					CHANNELS 1 Xrotation
					End Site
					{
						OFFSET -0 -0 0.07
					}
				}
			}
		}
	}
	JOINT Right_Thigh
	{
		OFFSET -0.1118 -0.1612 -0.0442
		CHANNELS 3 Xrotation Zrotation Yrotation
		JOINT Right_Shin
		{
			OFFSET 0 -0.477856 0
			CHANNELS 1 Xrotation
			JOINT Right_Foot
			{
				OFFSET 0 -0.431952 0
				CHANNELS 2 Xrotation Zrotation
				JOINT Right_Toe
				{
					OFFSET 0 -0.0442 0.119
					CHANNELS 1 Xrotation
					End Site
					{
						OFFSET -0 -0 0.07
					}
				}
			}
		}
	}
}
MOTION
Frames: 16
Frame Time: 0.009975
-0.101351 -0.0603097 0.0606505 -4.99592e-013 1.21601e-007 -5.10821e-006 0 0 0 0 0 0 0 0 0 0 0 0 0 0 -0 0 -0 0 0 0 0 -36.7832 -29.9624 77.4898 -4.76427 -12.2444 -6.63439 -16.4575 -31.3511 -13.5114 -0.647911 -24.507 -18.2419 -18.0941 9.02909 -22.0218 -38.2405 -19.3412 17.3445 -18.4185 -40.523 -37.4487 0 0 -0 0 -0 0 0 0 0 37.9386 28.008 73.698 26.2405 28.4472 13.118 18.2167 29.0248 19.6359 0 22.4358 32.6146 28.1246 -8.63175 30.7051 32.2053 23.7634 -7.83088 26.7354 35.1526 30.0193 1.35227 -0.658014 -0.0155328 0.0240216 -1.3762 0.658202 0 1.36367 -0.65801 -0.0156638 1.70755e-006 -1.36358 0.658202 0 
-0.101351 -0.0603097 0.0606505 -4.99592e-013 1.21601e-007 -5.10821e-006 0 0 0 0 0 0 0 0 0 0 0 0 0 0 -0 0 -0 0 0 0 0 -36.7832 -29.9624 77.4898 -4.76427 -12.2444 -6.63439 -16.4575 -31.3511 -13.5114 -0.647911 -24.507 -18.2419 -18.0941 9.02909 -22.0218 -38.2405 -19.3412 17.3445 -18.4185 -40.523 -37.4487 0 0 -0 0 -0 0 0 0 0 37.9386 28.008 73.698 26.2405 28.4472 13.118 18.2167 29.0248 19.6359 0 22.4358 32.6146 28.1246 -8.63175 30.7051 32.2053 23.7634 -7.83088 26.7354 35.1526 30.0193 1.35227 -0.658014 -0.0155328 0.0240216 -1.3762 0.658202 0 1.36367 -0.65801 -0.0156638 1.70755e-006 -1.36358 0.658202 0 
-0.109425 -0.0599964 0.0374529 3.76068e-012 -8.68815e-009 -5.08378e-006 0 -0 0 0 -0 0 0 -0 0 -0.710096 0.319876 -9.96093e-006 -1.98277 -12.5429 -15.4753 -38.8762 -47.8313 -44.4202 7.68037 8.08489 -1.11084 -87.9448 23.3774 80.1162 -26.268 -25.553 3.36947 1.26939 -8.12464 -1.9774 1.26002 0.339698 -2.44685 0.463332 -2.36084 -10.2372 12.8846 1.65859 -1.56468 -39.6046 50.5056 13.9241 6.99455 43.7448 -7.24263 31.176 39.4595 56.9331 5.10249 0.390115 -1.19474 80.2877 -9.52831 83.5186 14.0196 8.23734 -5.37081 -1.2992 5.4912 2.22288 -5.03299 -0.132581 0.530825 2.81527 -1.30229 13.1613 -12.0823 -8.50569 -1.73731 41.9759 -47.6916 -17.7641 -0.108776 -0.149588 0.000284715 0.0239015 0.0848741 0.149593 0 -0.0974282 -0.149588 0.000255016 0 0.0974279 0.149593 0 
-0.109111 -0.0599994 0.0364987 3.77958e-012 -8.73181e-009 -5.10933e-006 0 -0 0 0 -0 0 0 -0 0 -0.711645 0.313751 -1.02967e-009 -1.99269 -12.6059 -14.536 -38.9801 -45.906 -45.5007 7.717 8.12552 -1.11641 -88.1311 23.6134 80.1934 -26.2241 -25.5809 3.39088 1.42644 -7.96446 -1.91196 1.26618 0.502198 -2.25814 0.556113 -2.38001 -10.1279 13.1504 1.75738 -1.60245 -39.6829 50.9302 14.0946 7.02796 43.9643 -5.90023 31.1678 36.1361 58.3522 5.12597 0.392075 -1.20075 80.4227 -9.69496 83.5753 13.9142 8.17823 -5.40202 -1.45629 5.31779 2.15868 -5.05761 -0.293755 0.332487 2.73897 -1.3013 13.0666 -12.344 -8.63889 -1.71607 42.0662 -48.1021 -17.9539 -0.168928 -0.169308 0.000499267 0.0240216 0.144905 0.169314 0 -0.157523 -0.169308 0.000465566 0 0.157522 0.169314 0 
-0.109052 -0.0599997 0.0364772 5.53319e-012 -1.40872e-008 -5.10933e-006 0 -0 0 0 -0 0 0 -0 0 -0.711618 0.312868 -8.33986e-013 -1.99269 -12.6059 -14.5289 -38.9792 -45.8931 -45.5071 7.717 8.12552 -1.11641 -88.1311 23.6134 80.1934 -26.2241 -25.5809 3.39088 1.42644 -7.96446 -1.91196 1.26618 0.502198 -2.25814 0.556113 -2.38001 -10.1279 13.1504 1.75738 -1.60245 -39.6829 50.9302 14.0946 7.02796 43.9643 -5.89044 31.1663 36.1131 58.3608 5.12597 0.392075 -1.20075 80.4227 -9.69496 83.5753 13.9142 8.17823 -5.40202 -1.45629 5.31779 2.15868 -5.05761 -0.293755 0.332487 2.73897 -1.3013 13.0666 -12.344 -8.63889 -1.71607 42.0662 -48.1021 -17.9539 -0.170279 -0.173048 0.000514304 0.0240216 0.146257 0.173054 0 -0.158875 -0.173048 0.000479858 0 0.158874 0.173054 0 
-0.109051 -0.0599997 0.036477 -2.87101e-012 -1.41684e-008 -5.10933e-006 0 -0 0 0 -0 0 0 -0 0 -0.711618 0.312826 -3.00899e-016 -1.99269 -12.6059 -14.5289 -38.9792 -45.8931 -45.5071 7.717 8.12552 -1.11641 -88.1311 23.6134 80.1934 -26.2241 -25.5809 3.39088 1.42644 -7.96446 -1.91196 1.26618 0.502198 -2.25814 0.556113 -2.38001 -10.1279 13.1504 1.75738 -1.60245 -39.6829 50.9302 14.0946 7.02796 43.9643 -5.89044 31.1663 36.1131 58.3608 5.12597 0.392075 -1.20075 80.4227 -9.69496 83.5753 13.9142 8.17823 -5.40202 -1.45629 5.31779 2.15868 -5.05761 -0.293755 0.332487 2.73897 -1.3013 13.0666 -12.344 -8.63889 -1.71607 42.0662 -48.1021 -17.9539 -0.170296 -0.173115 0.00051455 0.0240216 0.146274 0.17312 0 -0.158891 -0.173115 0.000480093 0 0.15889 0.17312 0 
-0.109051 -0.0599997 0.036477 4.29545e-012 -1.41691e-008 -5.10932e-006 0 -0 0 0 -0 0 0 -0 0 -0.711618 0.312826 -0 -1.99269 -12.6059 -14.5289 -38.9792 -45.8931 -45.5071 7.717 8.12552 -1.11641 -88.1311 23.6134 80.1934 -26.2241 -25.5809 3.39088 1.42644 -7.96446 -1.91196 1.26618 0.502198 -2.25814 0.556113 -2.38001 -10.1279 13.1504 1.75738 -1.60245 -39.6829 50.9302 14.0946 7.02796 43.9643 -5.89044 31.1663 36.1131 58.3608 5.12597 0.392075 -1.20075 80.4227 -9.69496 83.5753 13.9142 8.17823 -5.40202 -1.45629 5.31779 2.15868 -5.05761 -0.293755 0.332487 2.73897 -1.3013 13.0666 -12.344 -8.63889 -1.71607 42.0662 -48.1021 -17.9539 -0.170296 -0.173115 0.000514553 0.0240216 0.146274 0.173121 0 -0.158891 -0.173115 0.000480094 2.78917e-006 0.158891 0.173121 0 
-0.109051 -0.0599997 0.036477 -6.63193e-013 -1.41691e-008 -5.10932e-006 0 -0 0 0 -0 0 0 -0 0 -0.711618 0.312825 -0 -1.99269 -12.6059 -14.5289 -38.9792 -45.8931 -45.5071 7.717 8.12552 -1.11641 -88.1311 23.6134 80.1934 -26.2241 -25.5809 3.39088 1.42644 -7.96446 -1.91196 1.26618 0.502198 -2.25814 0.556113 -2.38001 -10.1279 13.1504 1.75738 -1.60245 -39.6829 50.9302 14.0946 7.02796 43.9643 -5.89044 31.1663 36.1131 58.3608 5.12597 0.392075 -1.20075 80.4227 -9.69496 83.5753 13.9142 8.17823 -5.40202 -1.45629 5.31779 2.15868 -5.05761 -0.293755 0.332487 2.73897 -1.3013 13.0666 -12.344 -8.63889 -1.71607 42.0662 -48.1021 -17.9539 -0.170296 -0.173115 0.000514553 0.0240216 0.146274 0.173121 0 -0.158893 -0.173115 0.0004801 1.72722e-006 0.158889 0.173121 0 
-0.109051 -0.0599997 0.036477 3.51981e-012 -1.41691e-008 -5.10932e-006 0 -0 0 0 -0 0 0 -0 0 -0.711618 0.312825 -3.88257e-019 -1.99269 -12.6059 -14.5289 -38.9792 -45.8931 -45.5071 7.717 8.12552 -1.11641 -88.1311 23.6134 80.1934 -26.2241 -25.5809 3.39088 1.42644 -7.96446 -1.91196 1.26618 0.502198 -2.25814 0.556113 -2.38001 -10.1279 13.1504 1.75738 -1.60245 -39.6829 50.9302 14.0946 7.02796 43.9643 -5.89044 31.1663 36.1131 58.3608 5.12597 0.392075 -1.20075 80.4227 -9.69496 83.5753 13.9142 8.17823 -5.40202 -1.45629 5.31779 2.15868 -5.05761 -0.293755 0.332487 2.73897 -1.3013 13.0666 -12.344 -8.63889 -1.71607 42.0662 -48.1021 -17.9539 -0.170296 -0.173115 0.000514553 0.0240216 0.146274 0.173121 0 -0.158891 -0.173115 0.000480095 1.70755e-006 0.158889 0.173121 0 
-0.109051 -0.0599997 0.036477 4.1513e-012 -1.41691e-008 -5.10932e-006 0 -0 0 0 -0 0 0 -0 0 -0.711618 0.312825 -3.88257e-019 -1.99269 -12.6059 -14.5289 -38.9792 -45.8931 -45.5071 7.717 8.12552 -1.11641 -88.1311 23.6134 80.1934 -26.2241 -25.5809 3.39088 1.42644 -7.96446 -1.91196 1.26618 0.502198 -2.25814 0.556113 -2.38001 -10.1279 13.1504 1.75738 -1.60245 -39.6829 50.9302 14.0946 7.02796 43.9643 -5.89044 31.1663 36.1131 58.3608 5.12597 0.392075 -1.20075 80.4227 -9.69496 83.5753 13.9142 8.17823 -5.40202 -1.45629 5.31779 2.15868 -5.05761 -0.293755 0.332487 2.73897 -1.3013 13.0666 -12.344 -8.63889 -1.71607 42.0662 -48.1021 -17.9539 -0.170296 -0.173115 0.000514553 0.0240216 0.146274 0.173121 0 -0.158891 -0.173115 0.000480095 3.84198e-008 0.158891 0.173121 0 
-0.109051 -0.0599997 0.036477 4.66445e-012 -1.41691e-008 -5.10932e-006 0 -0 0 0 -0 0 0 -0 0 -0.711618 0.312825 -0 -1.99269 -12.6059 -14.5289 -38.9792 -45.8931 -45.5071 7.717 8.12552 -1.11641 -88.1311 23.6134 80.1934 -26.2241 -25.5809 3.39088 1.42644 -7.96446 -1.91196 1.26618 0.502198 -2.25814 0.556113 -2.38001 -10.1279 13.1504 1.75738 -1.60245 -39.6829 50.9302 14.0946 7.02796 43.9643 -5.89044 31.1663 36.1131 58.3608 5.12597 0.392075 -1.20075 80.4227 -9.69496 83.5753 13.9142 8.17823 -5.40202 -1.45629 5.31779 2.15868 -5.05761 -0.293755 0.332487 2.73897 -1.3013 13.0666 -12.344 -8.63889 -1.71607 42.0662 -48.1021 -17.9539 -0.170296 -0.173115 0.000514553 0.0240216 0.146274 0.173121 0 -0.158891 -0.173115 0.000480095 2.35447e-006 0.158888 0.173121 0 
-0.109051 -0.0599997 0.036477 2.4673e-012 -1.41691e-008 -5.10933e-006 0 -0 0 0 -0 0 0 -0 0 -0.711618 0.312825 -3.88257e-019 -1.99269 -12.6059 -14.5289 -38.9792 -45.8931 -45.5071 7.717 8.12552 -1.11641 -88.1311 23.6134 80.1934 -26.2241 -25.5809 3.39088 1.42644 -7.96446 -1.91196 1.26618 0.502198 -2.25814 0.556113 -2.38001 -10.1279 13.1504 1.75738 -1.60245 -39.6829 50.9302 14.0946 7.02796 43.9643 -5.89044 31.1663 36.1131 58.3608 5.12597 0.392075 -1.20075 80.4227 -9.69496 83.5753 13.9142 8.17823 -5.40202 -1.45629 5.31779 2.15868 -5.05761 -0.293755 0.332487 2.73897 -1.3013 13.0666 -12.344 -8.63889 -1.71607 42.0662 -48.1021 -17.9539 -0.170296 -0.173115 0.000514553 0.0240216 0.146274 0.173121 0 -0.158891 -0.173115 0.000480095 6.6408e-008 0.158891 0.173121 0 
-0.109051 -0.0599997 0.036477 3.77558e-012 -1.41691e-008 -5.10932e-006 0 -0 0 0 -0 0 0 -0 0 -0.711618 0.312825 3.88257e-019 -1.99269 -12.6059 -14.5289 -38.9792 -45.8931 -45.5071 7.717 8.12552 -1.11641 -88.1311 23.6134 80.1934 -26.2241 -25.5809 3.39088 1.42644 -7.96446 -1.91196 1.26618 0.502198 -2.25814 0.556113 -2.38001 -10.1279 13.1504 1.75738 -1.60245 -39.6829 50.9302 14.0946 7.02796 43.9643 -5.89044 31.1663 36.1131 58.3608 5.12597 0.392075 -1.20075 80.4227 -9.69496 83.5753 13.9142 8.17823 -5.40202 -1.45629 5.31779 2.15868 -5.05761 -0.293755 0.332487 2.73897 -1.3013 13.0666 -12.344 -8.63889 -1.71607 42.0662 -48.1021 -17.9539 -0.170296 -0.173115 0.000514553 0.0240216 0.146274 0.173121 0 -0.158891 -0.173115 0.000480095 2.7467e-006 0.158891 0.173121 0 
-0.109051 -0.0599997 0.036477 3.0607e-012 -1.41691e-008 -5.10933e-006 0 -0 0 0 -0 0 0 -0 0 -0.711618 0.312825 -3.88257e-019 -1.99269 -12.6059 -14.5289 -38.9792 -45.8931 -45.5071 7.717 8.12552 -1.11641 -88.1311 23.6134 80.1934 -26.2241 -25.5809 3.39088 1.42644 -7.96446 -1.91196 1.26618 0.502198 -2.25814 0.556113 -2.38001 -10.1279 13.1504 1.75738 -1.60245 -39.6829 50.9302 14.0946 7.02796 43.9643 -5.89044 31.1663 36.1131 58.3608 5.12597 0.392075 -1.20075 80.4227 -9.69496 83.5753 13.9142 8.17823 -5.40202 -1.45629 5.31779 2.15868 -5.05761 -0.293755 0.332487 2.73897 -1.3013 13.0666 -12.344 -8.63889 -1.71607 42.0662 -48.1021 -17.9539 -0.170296 -0.173115 0.000514553 0.0240216 0.146274 0.173121 0 -0.158893 -0.173115 0.0004801 9.20285e-008 0.15889 0.173121 0 
-0.109051 -0.0599997 0.036477 1.40254e-012 -1.41691e-008 -5.10932e-006 0 -0 0 0 -0 0 0 -0 0 -0.711618 0.312825 -3.88257e-019 -1.99269 -12.6059 -14.5289 -38.9792 -45.8931 -45.5071 7.717 8.12552 -1.11641 -88.1311 23.6134 80.1934 -26.2241 -25.5809 3.39088 1.42644 -7.96446 -1.91196 1.26618 0.502198 -2.25814 0.556113 -2.38001 -10.1279 13.1504 1.75738 -1.60245 -39.6829 50.9302 14.0946 7.02796 43.9643 -5.89044 31.1663 36.1131 58.3608 5.12597 0.392075 -1.20075 80.4227 -9.69496 83.5753 13.9142 8.17823 -5.40202 -1.45629 5.31779 2.15868 -5.05761 -0.293755 0.332487 2.73897 -1.3013 13.0666 -12.344 -8.63889 -1.71607 42.0662 -48.1021 -17.9539 -0.170296 -0.173115 0.000514553 0.0240216 0.146274 0.173121 0 -0.158891 -0.173115 0.000480095 2.33032e-006 0.158888 0.173121 0 
-0.109051 -0.0599997 0.036477 -1.1016e-012 -1.41691e-008 -5.10932e-006 0 -0 0 0 -0 0 0 -0 0 -0.711618 0.312825 3.88257e-019 -1.99269 -12.6059 -14.5289 -38.9792 -45.8931 -45.5071 7.717 8.12552 -1.11641 -88.1311 23.6134 80.1934 -26.2241 -25.5809 3.39088 1.42644 -7.96446 -1.91196 1.26618 0.502198 -2.25814 0.556113 -2.38001 -10.1279 13.1504 1.75738 -1.60245 -39.6829 50.9302 14.0946 7.02796 43.9643 -5.89044 31.1663 36.1131 58.3608 5.12597 0.392075 -1.20075 80.4227 -9.69496 83.5753 13.9142 8.17823 -5.40202 -1.45629 5.31779 2.15868 -5.05761 -0.293755 0.332487 2.73897 -1.3013 13.0666 -12.344 -8.63889 -1.71607 42.0662 -48.1021 -17.9539 -0.170296 -0.173115 0.000514553 0.0240216 0.146274 0.173121 0 -0.158891 -0.173115 0.000480095 9.05564e-008 0.158891 0.173121 0 
